<svg width="23" height="20" viewBox="0 0 23 20" fill="currentColor" xmlns="http://www.w3.org/2000/svg">
<path d="M22.7273 18.5714C22.7273 18.9583 22.5904 19.2932 22.3167 19.5759C22.0429 19.8586 21.7063 20 21.3068 20H1.42045C1.02095 20 0.684334 19.8586 0.4106 19.5759C0.136867 19.2932 0 18.9583 0 18.5714C0 18.3185 0.0665838 18.0804 0.199751 17.8571L9.94318 1.42857C10.0616 1.16071 10.1466 0.982143 10.1984 0.892857C10.2502 0.803571 10.339 0.665923 10.4648 0.479911C10.5905 0.293899 10.7237 0.167411 10.8643 0.100446C11.0048 0.0334821 11.1713 0 11.3636 0C11.6152 0 11.8334 0.0744048 12.0184 0.223214C12.2033 0.372024 12.3439 0.531994 12.4401 0.703125C12.5363 0.874256 12.6509 1.11607 12.7841 1.42857L22.5275 17.8571C22.6607 18.0804 22.7273 18.3185 22.7273 18.5714ZM12.7841 7.14286C12.7841 6.74107 12.6472 6.40253 12.3735 6.12723C12.0998 5.85193 11.7631 5.71429 11.3636 5.71429C10.9641 5.71429 10.6275 5.85193 10.3538 6.12723C10.08 6.40253 9.94318 6.74107 9.94318 7.14286V11.4286C9.94318 11.8155 10.0837 12.1503 10.3649 12.433C10.646 12.7158 10.9789 12.8571 11.3636 12.8571C11.7483 12.8571 12.0813 12.7158 12.3624 12.433C12.6435 12.1503 12.7841 11.8155 12.7841 11.4286V7.14286ZM11.3525 14.2857C10.9604 14.2857 10.6275 14.4234 10.3538 14.6987C10.08 14.974 9.94318 15.3088 9.94318 15.7031C9.94318 16.0975 10.0837 16.436 10.3649 16.7188C10.646 17.0015 10.9789 17.1429 11.3636 17.1429C11.7483 17.1429 12.0813 17.0015 12.3624 16.7188C12.6435 16.436 12.7841 16.0975 12.7841 15.7031C12.7841 15.3088 12.6435 14.974 12.3624 14.6987C12.0813 14.4234 11.7446 14.2857 11.3525 14.2857Z"/>
</svg>
