<svg width="87" height="102" viewBox="0 0 87 102" fill="currentColor" stroke="white" xmlns="http://www.w3.org/2000/svg">
<path d="M69.44 23.9647L69.492 24.4062H69.9365H82.0781C84.0025 24.4062 85.5625 25.9662 85.5625 27.8906V98.0156C85.5625 99.94 84.0025 101.5 82.0781 101.5H3.98438C2.05995 101.5 0.5 99.94 0.5 98.0156V27.8906C0.5 25.9662 2.05995 24.4062 3.98438 24.4062H16.126H16.5705L16.6225 23.9647C18.1761 10.7703 29.427 0.5 43.0312 0.5C56.6355 0.5 67.8864 10.7703 69.44 23.9647ZM61.8891 24.4062H62.4804L62.3821 23.8232C60.8203 14.5533 52.7395 7.46875 43.0312 7.46875C33.323 7.46875 25.2422 14.5533 23.6804 23.8232L23.5821 24.4062H24.1734H61.8891ZM78.0938 94.5312H78.5938V94.0312V31.875V31.375H78.0938H70.125H69.625V31.875V43.8281C69.625 45.7526 68.065 47.3125 66.1406 47.3125C64.2162 47.3125 62.6562 45.7526 62.6562 43.8281V31.875V31.375H62.1562H23.9062H23.4062V31.875V43.8281C23.4062 45.7526 21.8463 47.3125 19.9219 47.3125C17.9974 47.3125 16.4375 45.7526 16.4375 43.8281V31.875V31.375H15.9375H7.96875H7.46875V31.875V94.0312V94.5312H7.96875H78.0938Z"/>
</svg>
