<svg width="104" height="128" viewBox="0 0 104 128" fill="currentColor" xmlns="http://www.w3.org/2000/svg">
<path d="M104 57.5903C104 57.4907 104 57.3911 104 57.2915C104 57.1919 104 56.9927 104 56.8931C104 53.9055 103.4 51.0174 102.3 48.4281L94.6 8.29378C93.8 4.31023 90.6 1.22298 86.6 0.625442C84.4 0.326676 81.7 0.326676 78.7 0.625442C77.1 0.82462 75.8 2.21887 76 3.91188C76.2 5.5053 77.6 6.70036 79.3 6.60077C81.8 6.30201 84 6.30201 85.7 6.60077C87.2 6.79995 88.4 7.99502 88.7 9.48885L94.3 38.5688C90.9 36.2783 86.9 34.7844 82.5 34.5852C81 32.7926 79.4 31.1992 77.7 29.7054C70.6 23.6305 61.6 20.6428 51 20.6428C40.4 20.6428 31.4 23.7301 24.3 29.7054C22.5 31.2988 20.8 32.9918 19.3 34.7844C15.8 35.2824 12.5 36.577 9.7 38.5688L15.3 9.48885C15.6 7.99502 16.8 6.89954 18.3 6.60077C20 6.4016 22.2 6.4016 24.7 6.60077C26.4 6.79995 27.8 5.60489 28 3.91188C28.2 2.31846 27 0.82462 25.3 0.625442C22.3 0.326676 19.7 0.326676 17.4 0.625442C13.4 1.22298 10.2 4.21064 9.4 8.29378L1.7 48.4281C0.6 51.0174 0 53.9055 0 56.8931C0 56.9927 0 57.1919 0 57.2915C0 57.3911 0 57.4907 0 57.5903C0.2 65.0594 4.1 71.6323 10 75.5163V128L27.8 111.368L40.1 124.614L51 111.767L61.9 124.614L74.2 111.368L92 128V76.7113C98.9 73.0265 103.7 65.8561 104 57.5903ZM51 26.5185C60.1 26.5185 67.8 29.1078 73.8 34.1869C74.3 34.5852 74.7 34.9836 75.1 35.382C70.3 36.7762 66.2 39.7639 63.3 43.6478C52.4 38.9671 44.4 41.3573 40.4 43.3491C37.2 39.1663 32.6 36.0791 27.2 34.9836C27.5 34.6848 27.8 34.4856 28.1 34.1869C34.2 29.1078 41.9 26.5185 51 26.5185ZM6 57.4907L7.4 50.2207C10 44.4445 15.8 40.461 22.5 40.461C31.6 40.461 39 47.8306 39 56.8931C39 57.0923 39 57.2915 39 57.4907C38.1 57.0923 37.1 56.8931 36 56.8931C31.9 56.8931 28.5 60.2792 28.5 64.3623C28.5 66.9516 29.8 69.1426 31.7 70.5368C29.1 72.3294 25.9 73.3253 22.5 73.3253C13.6 73.3253 6.4 66.2545 6 57.4907ZM86 114.256L73.8 103.003L62.1 115.651L51 102.604L39.9 115.651L28.2 103.003L16 114.256V78.3047C18.1 78.9023 20.2 79.3006 22.5 79.3006C34.9 79.3006 45 69.2422 45 56.8931C45 54.0051 44.4 51.117 43.4 48.6273C44.2 48.2289 45.2 47.8306 46.5 47.5318H55.9C57.3 47.8306 58.9 48.3285 60.5 49.0256C59.5 51.5154 59 54.2043 59 56.9927C59 69.3418 69.1 79.4002 81.5 79.4002C83 79.4002 84.5 79.201 86 78.9023V114.256ZM81.5 73.3253C78.1 73.3253 74.9 72.3294 72.3 70.5368C74.3 69.1426 75.5 66.9516 75.5 64.3623C75.5 60.2792 72.1 56.8931 68 56.8931C66.9 56.8931 65.9 57.0923 65 57.4907C65 57.2915 65 57.0923 65 56.8931C65 47.8306 72.4 40.461 81.5 40.461C88.2 40.461 94 44.4445 96.6 50.2207L98 57.4907C97.6 66.2545 90.4 73.3253 81.5 73.3253Z"/>
</svg>
