<svg width="144" height="116" viewBox="0 0 144 116" fill="currentColor" xmlns="http://www.w3.org/2000/svg">
<path d="M8.5 115.324L15.9 89.9287C5.59999 80.169 0 67.9196 0 55.2718C0 24.7976 32.3 0 72 0C111.7 0 144 24.7976 144 55.2718C144 85.746 111.7 110.544 72 110.544C60.5 110.544 49 108.452 38.9 104.369L8.5 115.324ZM72 5.97533C35.6 5.97533 6 28.0841 6 55.2718C6 66.7245 11.4 77.9781 21.3 86.7419L22.7 88.0365L17.5 105.664L39 97.8958L40.1 98.2942C49.8 102.377 60.9 104.469 72 104.469C108.4 104.469 138 82.36 138 55.1722C138 27.9845 108.4 5.97533 72 5.97533Z"/>
</svg>
