<svg width="29" height="25" viewBox="0 0 29 25" fill="currentColor" xmlns="http://www.w3.org/2000/svg">
<path d="M14.5309 5.24691C13.7065 5.24691 12.9026 5.41152 12.1194 5.74074L9.27505 2.90123C10.9652 2.28395 12.6965 1.97531 14.4691 1.97531C17.7257 1.97531 20.6731 2.89095 23.3113 4.72222C25.9495 6.5535 27.8458 8.93004 29 11.8519C28.0519 14.321 26.5473 16.3992 24.4861 18.0864L20.6525 14.2593C20.941 13.4774 21.0853 12.6749 21.0853 11.8519C21.0853 10.0412 20.4463 8.48765 19.1684 7.19136C17.8905 5.89506 16.3447 5.24691 14.5309 5.24691ZM1.29851 1.66667L2.96802 0L26.403 23.3333L24.7335 25L20.838 21.1728L20.2815 20.6173C18.4264 21.358 16.5096 21.7284 14.5309 21.7284C11.2743 21.7284 8.32694 20.8128 5.6887 18.9815C3.05046 17.1502 1.15423 14.7737 0 11.8519C1.03056 9.21811 2.67946 7.03704 4.94669 5.30864L4.32836 4.69136L1.29851 1.66667ZM8.59488 8.95062C8.14144 9.89712 7.91471 10.8642 7.91471 11.8519C7.91471 13.6626 8.56397 15.216 9.86247 16.5123C11.161 17.8086 12.7171 18.4568 14.5309 18.4568C15.5203 18.4568 16.489 18.2099 17.4371 17.716L15.3966 15.679C15.0668 15.7613 14.7783 15.8025 14.5309 15.8025C13.4179 15.8025 12.4801 15.4218 11.7175 14.6605C10.9549 13.8992 10.5736 12.963 10.5736 11.8519C10.5736 11.5638 10.5942 11.2757 10.6354 10.9877L8.59488 8.95062ZM14.2836 7.90123H14.5309C15.6027 7.90123 16.5302 8.29218 17.3134 9.07407C18.0967 9.85597 18.4883 10.7819 18.4883 11.8519L18.4264 12.0988L14.2836 7.90123Z"/>
</svg>
