<svg width="29" height="19" viewBox="0 0 29 19" fill="currentColor" xmlns="http://www.w3.org/2000/svg">
<path d="M14.5309 0C17.7875 0 20.7246 0.880729 23.3422 2.64219C25.9598 4.40365 27.8458 6.68958 29 9.5C27.8458 12.3104 25.9598 14.5964 23.3422 16.3578C20.7246 18.1193 17.7875 19 14.5309 19C11.2743 19 8.32694 18.1193 5.6887 16.3578C3.05046 14.5964 1.15423 12.3104 0 9.5C1.15423 6.68958 3.05046 4.40365 5.6887 2.64219C8.32694 0.880729 11.2743 0 14.5309 0ZM14.5309 15.8531C16.3447 15.8531 17.8905 15.2297 19.1684 13.9828C20.4463 12.7359 21.0853 11.2417 21.0853 9.5C21.0853 7.75833 20.4463 6.26406 19.1684 5.01719C17.8905 3.77031 16.3447 3.14687 14.5309 3.14687C12.7171 3.14687 11.161 3.77031 9.86247 5.01719C8.56397 6.26406 7.91471 7.75833 7.91471 9.5C7.91471 11.2417 8.56397 12.7359 9.86247 13.9828C11.161 15.2297 12.7171 15.8531 14.5309 15.8531ZM14.5 5.7C15.5924 5.7 16.5302 6.06615 17.3134 6.79844C18.0967 7.53073 18.4883 8.43125 18.4883 9.5C18.4883 10.5687 18.0967 11.4693 17.3134 12.2016C16.5302 12.9339 15.5924 13.3 14.5 13.3C13.4076 13.3 12.4801 12.9339 11.7175 12.2016C10.9549 11.4693 10.5736 10.5687 10.5736 9.5C10.5736 8.43125 10.9549 7.53073 11.7175 6.79844C12.4801 6.06615 13.4076 5.7 14.5 5.7Z"/>
</svg>
